<svg xmlns="http://www.w3.org/2000/svg" width="1600" height="1000" viewBox="0 0 1600 1000">
<defs>
<filter id="shadow" x="-20%" y="-20%" width="140%" height="140%"><feDropShadow dx="0" dy="8" stdDeviation="10" flood-color="#0f172a" flood-opacity="0.10"/></filter>
</defs>
<rect width="1600" height="1000" fill="#fbfaf7"/>
<text x="70.00" y="78.00" font-family="Aptos, Segoe UI, Arial, sans-serif" font-size="34" font-weight="800" fill="#172026" text-anchor="start" opacity="1">ED1 - espectro elastico NCh433 2026</text>
<text x="70.00" y="115.00" font-family="Aptos, Segoe UI, Arial, sans-serif" font-size="19" font-weight="500" fill="#60707a" text-anchor="start" opacity="1">Sa/g usado en ETABS; lineas verticales identifican los periodos modales</text>
<line x1="120.00" y1="840.00" x2="1440.00" y2="840.00" stroke="#334155" stroke-width="2"/>
<line x1="120.00" y1="190.00" x2="120.00" y2="840.00" stroke="#334155" stroke-width="2"/>
<line x1="120.00" y1="840.00" x2="1440.00" y2="840.00" stroke="#d8dee3" stroke-width="1"/>
<text x="105.00" y="845.00" font-family="Aptos, Segoe UI, Arial, sans-serif" font-size="14" font-weight="500" fill="#60707a" text-anchor="end" opacity="1">0</text>
<line x1="120.00" y1="710.00" x2="1440.00" y2="710.00" stroke="#d8dee3" stroke-width="1"/>
<text x="105.00" y="715.00" font-family="Aptos, Segoe UI, Arial, sans-serif" font-size="14" font-weight="500" fill="#60707a" text-anchor="end" opacity="1">0.268</text>
<line x1="120.00" y1="580.00" x2="1440.00" y2="580.00" stroke="#d8dee3" stroke-width="1"/>
<text x="105.00" y="585.00" font-family="Aptos, Segoe UI, Arial, sans-serif" font-size="14" font-weight="500" fill="#60707a" text-anchor="end" opacity="1">0.536</text>
<line x1="120.00" y1="450.00" x2="1440.00" y2="450.00" stroke="#d8dee3" stroke-width="1"/>
<text x="105.00" y="455.00" font-family="Aptos, Segoe UI, Arial, sans-serif" font-size="14" font-weight="500" fill="#60707a" text-anchor="end" opacity="1">0.804</text>
<line x1="120.00" y1="320.00" x2="1440.00" y2="320.00" stroke="#d8dee3" stroke-width="1"/>
<text x="105.00" y="325.00" font-family="Aptos, Segoe UI, Arial, sans-serif" font-size="14" font-weight="500" fill="#60707a" text-anchor="end" opacity="1">1.07</text>
<line x1="120.00" y1="190.00" x2="1440.00" y2="190.00" stroke="#d8dee3" stroke-width="1"/>
<text x="105.00" y="195.00" font-family="Aptos, Segoe UI, Arial, sans-serif" font-size="14" font-weight="500" fill="#60707a" text-anchor="end" opacity="1">1.34</text>
<polyline points="120.00,636.33 153.00,603.89 186.00,541.27 219.00,465.29 252.00,390.22 285.00,329.02 318.00,289.97 351.00,274.78 384.00,279.91 417.00,299.43 450.00,327.52 483.00,359.61 516.00,392.67 549.00,424.84 582.00,455.13 615.00,483.11 648.00,508.67 681.00,531.86 714.00,552.83 747.00,571.79 780.00,588.92 813.00,604.43 846.00,618.49 879.00,631.26 912.00,642.89 945.00,653.51 978.00,663.22 1011.00,672.13 1044.00,680.32 1077.00,687.87 1110.00,694.85 1143.00,701.30 1176.00,707.29 1209.00,712.86 1242.00,718.05 1275.00,722.88 1308.00,727.41 1341.00,731.64 1374.00,735.62 1407.00,739.35 1440.00,742.86" fill="none" stroke="#2563eb" stroke-width="4" stroke-linejoin="round" stroke-linecap="round" opacity="1"/>
<circle cx="120.00" cy="636.33" r="4.50" fill="#2563eb" stroke="white" stroke-width="2" opacity="1"/>
<circle cx="153.00" cy="603.89" r="4.50" fill="#2563eb" stroke="white" stroke-width="2" opacity="1"/>
<circle cx="186.00" cy="541.27" r="4.50" fill="#2563eb" stroke="white" stroke-width="2" opacity="1"/>
<circle cx="219.00" cy="465.29" r="4.50" fill="#2563eb" stroke="white" stroke-width="2" opacity="1"/>
<circle cx="252.00" cy="390.22" r="4.50" fill="#2563eb" stroke="white" stroke-width="2" opacity="1"/>
<circle cx="285.00" cy="329.02" r="4.50" fill="#2563eb" stroke="white" stroke-width="2" opacity="1"/>
<circle cx="318.00" cy="289.97" r="4.50" fill="#2563eb" stroke="white" stroke-width="2" opacity="1"/>
<circle cx="351.00" cy="274.78" r="4.50" fill="#2563eb" stroke="white" stroke-width="2" opacity="1"/>
<circle cx="384.00" cy="279.91" r="4.50" fill="#2563eb" stroke="white" stroke-width="2" opacity="1"/>
<circle cx="417.00" cy="299.43" r="4.50" fill="#2563eb" stroke="white" stroke-width="2" opacity="1"/>
<circle cx="450.00" cy="327.52" r="4.50" fill="#2563eb" stroke="white" stroke-width="2" opacity="1"/>
<circle cx="483.00" cy="359.61" r="4.50" fill="#2563eb" stroke="white" stroke-width="2" opacity="1"/>
<circle cx="516.00" cy="392.67" r="4.50" fill="#2563eb" stroke="white" stroke-width="2" opacity="1"/>
<circle cx="549.00" cy="424.84" r="4.50" fill="#2563eb" stroke="white" stroke-width="2" opacity="1"/>
<circle cx="582.00" cy="455.13" r="4.50" fill="#2563eb" stroke="white" stroke-width="2" opacity="1"/>
<circle cx="615.00" cy="483.11" r="4.50" fill="#2563eb" stroke="white" stroke-width="2" opacity="1"/>
<circle cx="648.00" cy="508.67" r="4.50" fill="#2563eb" stroke="white" stroke-width="2" opacity="1"/>
<circle cx="681.00" cy="531.86" r="4.50" fill="#2563eb" stroke="white" stroke-width="2" opacity="1"/>
<circle cx="714.00" cy="552.83" r="4.50" fill="#2563eb" stroke="white" stroke-width="2" opacity="1"/>
<circle cx="747.00" cy="571.79" r="4.50" fill="#2563eb" stroke="white" stroke-width="2" opacity="1"/>
<circle cx="780.00" cy="588.92" r="4.50" fill="#2563eb" stroke="white" stroke-width="2" opacity="1"/>
<circle cx="813.00" cy="604.43" r="4.50" fill="#2563eb" stroke="white" stroke-width="2" opacity="1"/>
<circle cx="846.00" cy="618.49" r="4.50" fill="#2563eb" stroke="white" stroke-width="2" opacity="1"/>
<circle cx="879.00" cy="631.26" r="4.50" fill="#2563eb" stroke="white" stroke-width="2" opacity="1"/>
<circle cx="912.00" cy="642.89" r="4.50" fill="#2563eb" stroke="white" stroke-width="2" opacity="1"/>
<circle cx="945.00" cy="653.51" r="4.50" fill="#2563eb" stroke="white" stroke-width="2" opacity="1"/>
<circle cx="978.00" cy="663.22" r="4.50" fill="#2563eb" stroke="white" stroke-width="2" opacity="1"/>
<circle cx="1011.00" cy="672.13" r="4.50" fill="#2563eb" stroke="white" stroke-width="2" opacity="1"/>
<circle cx="1044.00" cy="680.32" r="4.50" fill="#2563eb" stroke="white" stroke-width="2" opacity="1"/>
<circle cx="1077.00" cy="687.87" r="4.50" fill="#2563eb" stroke="white" stroke-width="2" opacity="1"/>
<circle cx="1110.00" cy="694.85" r="4.50" fill="#2563eb" stroke="white" stroke-width="2" opacity="1"/>
<circle cx="1143.00" cy="701.30" r="4.50" fill="#2563eb" stroke="white" stroke-width="2" opacity="1"/>
<circle cx="1176.00" cy="707.29" r="4.50" fill="#2563eb" stroke="white" stroke-width="2" opacity="1"/>
<circle cx="1209.00" cy="712.86" r="4.50" fill="#2563eb" stroke="white" stroke-width="2" opacity="1"/>
<circle cx="1242.00" cy="718.05" r="4.50" fill="#2563eb" stroke="white" stroke-width="2" opacity="1"/>
<circle cx="1275.00" cy="722.88" r="4.50" fill="#2563eb" stroke="white" stroke-width="2" opacity="1"/>
<circle cx="1308.00" cy="727.41" r="4.50" fill="#2563eb" stroke="white" stroke-width="2" opacity="1"/>
<circle cx="1341.00" cy="731.64" r="4.50" fill="#2563eb" stroke="white" stroke-width="2" opacity="1"/>
<circle cx="1374.00" cy="735.62" r="4.50" fill="#2563eb" stroke="white" stroke-width="2" opacity="1"/>
<circle cx="1407.00" cy="739.35" r="4.50" fill="#2563eb" stroke="white" stroke-width="2" opacity="1"/>
<circle cx="1440.00" cy="742.86" r="4.50" fill="#2563eb" stroke="white" stroke-width="2" opacity="1"/>
<text x="120.00" y="874.00" font-family="Aptos, Segoe UI, Arial, sans-serif" font-size="14" font-weight="500" fill="#60707a" text-anchor="middle" opacity="1">0.0</text>
<text x="252.00" y="874.00" font-family="Aptos, Segoe UI, Arial, sans-serif" font-size="14" font-weight="500" fill="#60707a" text-anchor="middle" opacity="1">0.2</text>
<text x="384.00" y="874.00" font-family="Aptos, Segoe UI, Arial, sans-serif" font-size="14" font-weight="500" fill="#60707a" text-anchor="middle" opacity="1">0.4</text>
<text x="516.00" y="874.00" font-family="Aptos, Segoe UI, Arial, sans-serif" font-size="14" font-weight="500" fill="#60707a" text-anchor="middle" opacity="1">0.6</text>
<text x="648.00" y="874.00" font-family="Aptos, Segoe UI, Arial, sans-serif" font-size="14" font-weight="500" fill="#60707a" text-anchor="middle" opacity="1">0.8</text>
<text x="780.00" y="874.00" font-family="Aptos, Segoe UI, Arial, sans-serif" font-size="14" font-weight="500" fill="#60707a" text-anchor="middle" opacity="1">1.0</text>
<text x="912.00" y="874.00" font-family="Aptos, Segoe UI, Arial, sans-serif" font-size="14" font-weight="500" fill="#60707a" text-anchor="middle" opacity="1">1.2</text>
<text x="1044.00" y="874.00" font-family="Aptos, Segoe UI, Arial, sans-serif" font-size="14" font-weight="500" fill="#60707a" text-anchor="middle" opacity="1">1.4</text>
<text x="1176.00" y="874.00" font-family="Aptos, Segoe UI, Arial, sans-serif" font-size="14" font-weight="500" fill="#60707a" text-anchor="middle" opacity="1">1.6</text>
<text x="1308.00" y="874.00" font-family="Aptos, Segoe UI, Arial, sans-serif" font-size="14" font-weight="500" fill="#60707a" text-anchor="middle" opacity="1">1.8</text>
<text x="1440.00" y="874.00" font-family="Aptos, Segoe UI, Arial, sans-serif" font-size="14" font-weight="500" fill="#60707a" text-anchor="middle" opacity="1">2.0</text>
<rect x="130.00" y="160.00" width="22.00" height="8.00" rx="3" fill="#2563eb" stroke="#2563eb" stroke-width="1" opacity="1"/>
<text x="160.00" y="169.00" font-family="Aptos, Segoe UI, Arial, sans-serif" font-size="15" font-weight="500" fill="#60707a" text-anchor="start" opacity="1">Sa/g</text>
<line x1="849.30" y1="190" x2="849.30" y2="840" stroke="#d97706" stroke-width="3" stroke-dasharray="8 8"/>
<line x1="842.04" y1="190" x2="842.04" y2="840" stroke="#0f766e" stroke-width="3" stroke-dasharray="8 8"/>
<rect x="1070.00" y="210.00" width="350" height="92" rx="8" fill="#ffffff" stroke="#d8dee3" stroke-width="1"/>
<line x1="1096.00" y1="238.00" x2="1146.00" y2="238.00" stroke="#d97706" stroke-width="4" stroke-dasharray="8 8"/>
<text x="1162.00" y="244.00" font-family="Aptos, Segoe UI, Arial, sans-serif" font-size="15" font-weight="800" fill="#334155">Tx / modo X = 1.105 s</text>
<line x1="1096.00" y1="274.00" x2="1146.00" y2="274.00" stroke="#0f766e" stroke-width="4" stroke-dasharray="8 8"/>
<text x="1162.00" y="280.00" font-family="Aptos, Segoe UI, Arial, sans-serif" font-size="15" font-weight="800" fill="#334155">Ty / modo Y = 1.094 s</text>
</svg>
