<svg xmlns="http://www.w3.org/2000/svg" width="1600" height="1000" viewBox="0 0 1600 1000">
<defs>
<filter id="shadow" x="-20%" y="-20%" width="140%" height="140%"><feDropShadow dx="0" dy="8" stdDeviation="10" flood-color="#0f172a" flood-opacity="0.10"/></filter>
</defs>
<rect width="1600" height="1000" fill="#fbfaf7"/>
<text x="70.00" y="78.00" font-family="Aptos, Segoe UI, Arial, sans-serif" font-size="34" font-weight="800" fill="#172026" text-anchor="start" opacity="1">ED1 - Max/Avg drift en diafragma</text>
<text x="70.00" y="115.00" font-family="Aptos, Segoe UI, Arial, sans-serif" font-size="19" font-weight="500" fill="#60707a" text-anchor="start" opacity="1">Caso critico SEy: max drift y ratio torsional por piso</text>
<line x1="190.00" y1="890.00" x2="1370.00" y2="890.00" stroke="#334155" stroke-width="2"/>
<line x1="190.00" y1="170.00" x2="190.00" y2="890.00" stroke="#334155" stroke-width="2"/>
<line x1="190.00" y1="170.00" x2="190.00" y2="890.00" stroke="#d8dee3" stroke-width="1"/>
<text x="190.00" y="918.00" font-family="Aptos, Segoe UI, Arial, sans-serif" font-size="13" font-weight="500" fill="#60707a" text-anchor="middle" opacity="1">0.0000</text>
<line x1="426.00" y1="170.00" x2="426.00" y2="890.00" stroke="#d8dee3" stroke-width="1"/>
<text x="426.00" y="918.00" font-family="Aptos, Segoe UI, Arial, sans-serif" font-size="13" font-weight="500" fill="#60707a" text-anchor="middle" opacity="1">0.0004</text>
<line x1="662.00" y1="170.00" x2="662.00" y2="890.00" stroke="#d8dee3" stroke-width="1"/>
<text x="662.00" y="918.00" font-family="Aptos, Segoe UI, Arial, sans-serif" font-size="13" font-weight="500" fill="#60707a" text-anchor="middle" opacity="1">0.0009</text>
<line x1="898.00" y1="170.00" x2="898.00" y2="890.00" stroke="#d8dee3" stroke-width="1"/>
<text x="898.00" y="918.00" font-family="Aptos, Segoe UI, Arial, sans-serif" font-size="13" font-weight="500" fill="#60707a" text-anchor="middle" opacity="1">0.0013</text>
<line x1="1134.00" y1="170.00" x2="1134.00" y2="890.00" stroke="#d8dee3" stroke-width="1"/>
<text x="1134.00" y="918.00" font-family="Aptos, Segoe UI, Arial, sans-serif" font-size="13" font-weight="500" fill="#60707a" text-anchor="middle" opacity="1">0.0018</text>
<line x1="1370.00" y1="170.00" x2="1370.00" y2="890.00" stroke="#d8dee3" stroke-width="1"/>
<text x="1370.00" y="918.00" font-family="Aptos, Segoe UI, Arial, sans-serif" font-size="13" font-weight="500" fill="#60707a" text-anchor="middle" opacity="1">0.0022</text>
<line x1="182.00" y1="890.00" x2="1370.00" y2="890.00" stroke="#d8dee3" stroke-width="1"/>
<text x="170.00" y="895.00" font-family="Aptos, Segoe UI, Arial, sans-serif" font-size="13" font-weight="500" fill="#60707a" text-anchor="end" opacity="1">Story1</text>
<line x1="182.00" y1="852.11" x2="1370.00" y2="852.11" stroke="#d8dee3" stroke-width="1"/>
<text x="170.00" y="857.11" font-family="Aptos, Segoe UI, Arial, sans-serif" font-size="13" font-weight="500" fill="#60707a" text-anchor="end" opacity="1">Story2</text>
<line x1="182.00" y1="814.21" x2="1370.00" y2="814.21" stroke="#d8dee3" stroke-width="1"/>
<text x="170.00" y="819.21" font-family="Aptos, Segoe UI, Arial, sans-serif" font-size="13" font-weight="500" fill="#60707a" text-anchor="end" opacity="1">Story3</text>
<line x1="182.00" y1="776.32" x2="1370.00" y2="776.32" stroke="#d8dee3" stroke-width="1"/>
<text x="170.00" y="781.32" font-family="Aptos, Segoe UI, Arial, sans-serif" font-size="13" font-weight="500" fill="#60707a" text-anchor="end" opacity="1">Story4</text>
<line x1="182.00" y1="738.42" x2="1370.00" y2="738.42" stroke="#d8dee3" stroke-width="1"/>
<text x="170.00" y="743.42" font-family="Aptos, Segoe UI, Arial, sans-serif" font-size="13" font-weight="500" fill="#60707a" text-anchor="end" opacity="1">Story5</text>
<line x1="182.00" y1="700.53" x2="1370.00" y2="700.53" stroke="#d8dee3" stroke-width="1"/>
<text x="170.00" y="705.53" font-family="Aptos, Segoe UI, Arial, sans-serif" font-size="13" font-weight="500" fill="#60707a" text-anchor="end" opacity="1">Story6</text>
<line x1="182.00" y1="662.63" x2="1370.00" y2="662.63" stroke="#d8dee3" stroke-width="1"/>
<text x="170.00" y="667.63" font-family="Aptos, Segoe UI, Arial, sans-serif" font-size="13" font-weight="500" fill="#60707a" text-anchor="end" opacity="1">Story7</text>
<line x1="182.00" y1="624.74" x2="1370.00" y2="624.74" stroke="#d8dee3" stroke-width="1"/>
<text x="170.00" y="629.74" font-family="Aptos, Segoe UI, Arial, sans-serif" font-size="13" font-weight="500" fill="#60707a" text-anchor="end" opacity="1">Story8</text>
<line x1="182.00" y1="586.84" x2="1370.00" y2="586.84" stroke="#d8dee3" stroke-width="1"/>
<text x="170.00" y="591.84" font-family="Aptos, Segoe UI, Arial, sans-serif" font-size="13" font-weight="500" fill="#60707a" text-anchor="end" opacity="1">Story9</text>
<line x1="182.00" y1="548.95" x2="1370.00" y2="548.95" stroke="#d8dee3" stroke-width="1"/>
<text x="170.00" y="553.95" font-family="Aptos, Segoe UI, Arial, sans-serif" font-size="13" font-weight="500" fill="#60707a" text-anchor="end" opacity="1">Story10</text>
<line x1="182.00" y1="511.05" x2="1370.00" y2="511.05" stroke="#d8dee3" stroke-width="1"/>
<text x="170.00" y="516.05" font-family="Aptos, Segoe UI, Arial, sans-serif" font-size="13" font-weight="500" fill="#60707a" text-anchor="end" opacity="1">Story11</text>
<line x1="182.00" y1="473.16" x2="1370.00" y2="473.16" stroke="#d8dee3" stroke-width="1"/>
<text x="170.00" y="478.16" font-family="Aptos, Segoe UI, Arial, sans-serif" font-size="13" font-weight="500" fill="#60707a" text-anchor="end" opacity="1">Story12</text>
<line x1="182.00" y1="435.26" x2="1370.00" y2="435.26" stroke="#d8dee3" stroke-width="1"/>
<text x="170.00" y="440.26" font-family="Aptos, Segoe UI, Arial, sans-serif" font-size="13" font-weight="500" fill="#60707a" text-anchor="end" opacity="1">Story13</text>
<line x1="182.00" y1="397.37" x2="1370.00" y2="397.37" stroke="#d8dee3" stroke-width="1"/>
<text x="170.00" y="402.37" font-family="Aptos, Segoe UI, Arial, sans-serif" font-size="13" font-weight="500" fill="#60707a" text-anchor="end" opacity="1">Story14</text>
<line x1="182.00" y1="359.47" x2="1370.00" y2="359.47" stroke="#d8dee3" stroke-width="1"/>
<text x="170.00" y="364.47" font-family="Aptos, Segoe UI, Arial, sans-serif" font-size="13" font-weight="500" fill="#60707a" text-anchor="end" opacity="1">Story15</text>
<line x1="182.00" y1="321.58" x2="1370.00" y2="321.58" stroke="#d8dee3" stroke-width="1"/>
<text x="170.00" y="326.58" font-family="Aptos, Segoe UI, Arial, sans-serif" font-size="13" font-weight="500" fill="#60707a" text-anchor="end" opacity="1">Story16</text>
<line x1="182.00" y1="283.68" x2="1370.00" y2="283.68" stroke="#d8dee3" stroke-width="1"/>
<text x="170.00" y="288.68" font-family="Aptos, Segoe UI, Arial, sans-serif" font-size="13" font-weight="500" fill="#60707a" text-anchor="end" opacity="1">Story17</text>
<line x1="182.00" y1="245.79" x2="1370.00" y2="245.79" stroke="#d8dee3" stroke-width="1"/>
<text x="170.00" y="250.79" font-family="Aptos, Segoe UI, Arial, sans-serif" font-size="13" font-weight="500" fill="#60707a" text-anchor="end" opacity="1">Story18</text>
<line x1="182.00" y1="207.89" x2="1370.00" y2="207.89" stroke="#d8dee3" stroke-width="1"/>
<text x="170.00" y="212.89" font-family="Aptos, Segoe UI, Arial, sans-serif" font-size="13" font-weight="500" fill="#60707a" text-anchor="end" opacity="1">Story19</text>
<line x1="182.00" y1="170.00" x2="1370.00" y2="170.00" stroke="#d8dee3" stroke-width="1"/>
<text x="170.00" y="175.00" font-family="Aptos, Segoe UI, Arial, sans-serif" font-size="13" font-weight="500" fill="#60707a" text-anchor="end" opacity="1">Story20</text>
<line x1="1262.73" y1="170.00" x2="1262.73" y2="890.00" stroke="#b91c1c" stroke-width="3" stroke-dasharray="8 8"/>
<text x="1270.73" y="190.00" font-family="Aptos, Segoe UI, Arial, sans-serif" font-size="16" font-weight="800" fill="#b91c1c" text-anchor="start" opacity="1">limite 0.002</text>
<polyline points="278.50,890.00 393.82,852.11 478.03,814.21 553.12,776.32 618.55,738.42 676.48,700.53 726.36,662.63 769.27,624.74 806.28,586.84 836.85,548.95 861.53,511.05 881.37,473.16 896.39,435.26 906.58,397.37 913.02,359.47 915.70,321.58 915.70,283.68 912.48,245.79 908.73,207.89 903.90,170.00" fill="none" stroke="#0f766e" stroke-width="4" stroke-linejoin="round" stroke-linecap="round" opacity="1"/>
<circle cx="278.50" cy="890.00" r="4.20" fill="#0f766e" stroke="white" stroke-width="2" opacity="1"/>
<circle cx="393.82" cy="852.11" r="4.20" fill="#0f766e" stroke="white" stroke-width="2" opacity="1"/>
<circle cx="478.03" cy="814.21" r="4.20" fill="#0f766e" stroke="white" stroke-width="2" opacity="1"/>
<circle cx="553.12" cy="776.32" r="4.20" fill="#0f766e" stroke="white" stroke-width="2" opacity="1"/>
<circle cx="618.55" cy="738.42" r="4.20" fill="#0f766e" stroke="white" stroke-width="2" opacity="1"/>
<circle cx="676.48" cy="700.53" r="4.20" fill="#0f766e" stroke="white" stroke-width="2" opacity="1"/>
<circle cx="726.36" cy="662.63" r="4.20" fill="#0f766e" stroke="white" stroke-width="2" opacity="1"/>
<circle cx="769.27" cy="624.74" r="4.20" fill="#0f766e" stroke="white" stroke-width="2" opacity="1"/>
<circle cx="806.28" cy="586.84" r="4.20" fill="#0f766e" stroke="white" stroke-width="2" opacity="1"/>
<circle cx="836.85" cy="548.95" r="4.20" fill="#0f766e" stroke="white" stroke-width="2" opacity="1"/>
<circle cx="861.53" cy="511.05" r="4.20" fill="#0f766e" stroke="white" stroke-width="2" opacity="1"/>
<circle cx="881.37" cy="473.16" r="4.20" fill="#0f766e" stroke="white" stroke-width="2" opacity="1"/>
<circle cx="896.39" cy="435.26" r="4.20" fill="#0f766e" stroke="white" stroke-width="2" opacity="1"/>
<circle cx="906.58" cy="397.37" r="4.20" fill="#0f766e" stroke="white" stroke-width="2" opacity="1"/>
<circle cx="913.02" cy="359.47" r="4.20" fill="#0f766e" stroke="white" stroke-width="2" opacity="1"/>
<circle cx="915.70" cy="321.58" r="4.20" fill="#0f766e" stroke="white" stroke-width="2" opacity="1"/>
<circle cx="915.70" cy="283.68" r="4.20" fill="#0f766e" stroke="white" stroke-width="2" opacity="1"/>
<circle cx="912.48" cy="245.79" r="4.20" fill="#0f766e" stroke="white" stroke-width="2" opacity="1"/>
<circle cx="908.73" cy="207.89" r="4.20" fill="#0f766e" stroke="white" stroke-width="2" opacity="1"/>
<circle cx="903.90" cy="170.00" r="4.20" fill="#0f766e" stroke="white" stroke-width="2" opacity="1"/>
<polyline points="798.77,890.00 799.85,852.11 800.38,814.21 800.38,776.32 800.92,738.42 801.45,700.53 801.45,662.63 801.45,624.74 801.99,586.84 801.99,548.95 802.53,511.05 802.53,473.16 803.06,435.26 803.06,397.37 803.60,359.47 803.60,321.58 803.60,283.68 804.14,245.79 804.14,207.89 804.14,170.00" fill="none" stroke="#d97706" stroke-width="4" stroke-linejoin="round" stroke-linecap="round" opacity="1"/>
<circle cx="798.77" cy="890.00" r="4.20" fill="#d97706" stroke="white" stroke-width="2" opacity="1"/>
<circle cx="799.85" cy="852.11" r="4.20" fill="#d97706" stroke="white" stroke-width="2" opacity="1"/>
<circle cx="800.38" cy="814.21" r="4.20" fill="#d97706" stroke="white" stroke-width="2" opacity="1"/>
<circle cx="800.38" cy="776.32" r="4.20" fill="#d97706" stroke="white" stroke-width="2" opacity="1"/>
<circle cx="800.92" cy="738.42" r="4.20" fill="#d97706" stroke="white" stroke-width="2" opacity="1"/>
<circle cx="801.45" cy="700.53" r="4.20" fill="#d97706" stroke="white" stroke-width="2" opacity="1"/>
<circle cx="801.45" cy="662.63" r="4.20" fill="#d97706" stroke="white" stroke-width="2" opacity="1"/>
<circle cx="801.45" cy="624.74" r="4.20" fill="#d97706" stroke="white" stroke-width="2" opacity="1"/>
<circle cx="801.99" cy="586.84" r="4.20" fill="#d97706" stroke="white" stroke-width="2" opacity="1"/>
<circle cx="801.99" cy="548.95" r="4.20" fill="#d97706" stroke="white" stroke-width="2" opacity="1"/>
<circle cx="802.53" cy="511.05" r="4.20" fill="#d97706" stroke="white" stroke-width="2" opacity="1"/>
<circle cx="802.53" cy="473.16" r="4.20" fill="#d97706" stroke="white" stroke-width="2" opacity="1"/>
<circle cx="803.06" cy="435.26" r="4.20" fill="#d97706" stroke="white" stroke-width="2" opacity="1"/>
<circle cx="803.06" cy="397.37" r="4.20" fill="#d97706" stroke="white" stroke-width="2" opacity="1"/>
<circle cx="803.60" cy="359.47" r="4.20" fill="#d97706" stroke="white" stroke-width="2" opacity="1"/>
<circle cx="803.60" cy="321.58" r="4.20" fill="#d97706" stroke="white" stroke-width="2" opacity="1"/>
<circle cx="803.60" cy="283.68" r="4.20" fill="#d97706" stroke="white" stroke-width="2" opacity="1"/>
<circle cx="804.14" cy="245.79" r="4.20" fill="#d97706" stroke="white" stroke-width="2" opacity="1"/>
<circle cx="804.14" cy="207.89" r="4.20" fill="#d97706" stroke="white" stroke-width="2" opacity="1"/>
<circle cx="804.14" cy="170.00" r="4.20" fill="#d97706" stroke="white" stroke-width="2" opacity="1"/>
<rect x="190.00" y="134.00" width="22.00" height="8.00" rx="3" fill="#0f766e" stroke="#0f766e" stroke-width="1" opacity="1"/>
<text x="220.00" y="143.00" font-family="Aptos, Segoe UI, Arial, sans-serif" font-size="15" font-weight="500" fill="#60707a" text-anchor="start" opacity="1">Max drift</text>
<rect x="323.80" y="134.00" width="22.00" height="8.00" rx="3" fill="#d97706" stroke="#d97706" stroke-width="1" opacity="1"/>
<text x="353.80" y="143.00" font-family="Aptos, Segoe UI, Arial, sans-serif" font-size="15" font-weight="500" fill="#60707a" text-anchor="start" opacity="1">Ratio/1000</text>
</svg>
