<svg xmlns="http://www.w3.org/2000/svg" width="1600" height="1000" viewBox="0 0 1600 1000">
<defs>
<filter id="shadow" x="-20%" y="-20%" width="140%" height="140%"><feDropShadow dx="0" dy="8" stdDeviation="10" flood-color="#0f172a" flood-opacity="0.10"/></filter>
</defs>
<rect width="1600" height="1000" fill="#fbfaf7"/>
<text x="70.00" y="78.00" font-family="Aptos, Segoe UI, Arial, sans-serif" font-size="34" font-weight="800" fill="#172026" text-anchor="start" opacity="1">ED1 - participacion modal acumulada</text>
<text x="70.00" y="115.00" font-family="Aptos, Segoe UI, Arial, sans-serif" font-size="19" font-weight="500" fill="#60707a" text-anchor="start" opacity="1">La masa supera 90% en X modo 7 y en Y modo 8</text>
<line x1="120.00" y1="840.00" x2="1440.00" y2="840.00" stroke="#334155" stroke-width="2"/>
<line x1="120.00" y1="190.00" x2="120.00" y2="840.00" stroke="#334155" stroke-width="2"/>
<line x1="120.00" y1="840.00" x2="1440.00" y2="840.00" stroke="#d8dee3" stroke-width="1"/>
<text x="105.00" y="845.00" font-family="Aptos, Segoe UI, Arial, sans-serif" font-size="14" font-weight="500" fill="#60707a" text-anchor="end" opacity="1">0</text>
<line x1="120.00" y1="710.00" x2="1440.00" y2="710.00" stroke="#d8dee3" stroke-width="1"/>
<text x="105.00" y="715.00" font-family="Aptos, Segoe UI, Arial, sans-serif" font-size="14" font-weight="500" fill="#60707a" text-anchor="end" opacity="1">0.21</text>
<line x1="120.00" y1="580.00" x2="1440.00" y2="580.00" stroke="#d8dee3" stroke-width="1"/>
<text x="105.00" y="585.00" font-family="Aptos, Segoe UI, Arial, sans-serif" font-size="14" font-weight="500" fill="#60707a" text-anchor="end" opacity="1">0.42</text>
<line x1="120.00" y1="450.00" x2="1440.00" y2="450.00" stroke="#d8dee3" stroke-width="1"/>
<text x="105.00" y="455.00" font-family="Aptos, Segoe UI, Arial, sans-serif" font-size="14" font-weight="500" fill="#60707a" text-anchor="end" opacity="1">0.63</text>
<line x1="120.00" y1="320.00" x2="1440.00" y2="320.00" stroke="#d8dee3" stroke-width="1"/>
<text x="105.00" y="325.00" font-family="Aptos, Segoe UI, Arial, sans-serif" font-size="14" font-weight="500" fill="#60707a" text-anchor="end" opacity="1">0.84</text>
<line x1="120.00" y1="190.00" x2="1440.00" y2="190.00" stroke="#d8dee3" stroke-width="1"/>
<text x="105.00" y="195.00" font-family="Aptos, Segoe UI, Arial, sans-serif" font-size="14" font-weight="500" fill="#60707a" text-anchor="end" opacity="1">1.05</text>
<polyline points="120.00,612.25 142.37,611.57 164.75,421.59 187.12,322.29 209.49,322.29 231.86,313.56 254.24,274.62 276.61,274.62 298.98,272.40 321.36,252.59 343.73,252.59 366.10,251.53 388.47,240.39 410.85,240.39 433.22,239.77 455.59,233.15 477.97,233.15 500.34,232.47 522.71,228.75 545.08,228.75 567.46,226.03 589.83,225.97 612.20,225.97 634.58,224.23 656.95,224.17 679.32,223.06 701.69,223.06 724.07,223.06 746.44,222.31 768.81,222.31 791.19,221.82 813.56,221.82 835.93,221.82 858.31,221.51 880.68,221.45 903.05,221.26 925.42,221.26 947.80,221.14 970.17,221.14 992.54,221.14 1014.92,221.08 1037.29,221.01 1059.66,221.01 1082.03,221.01 1104.41,220.95 1126.78,220.95 1149.15,220.95 1171.53,220.95 1193.90,220.95 1216.27,220.95 1238.64,220.95 1261.02,220.95 1283.39,220.95 1305.76,220.95 1328.14,220.95 1350.51,220.95 1372.88,220.95 1395.25,220.95 1417.63,220.95 1440.00,220.95" fill="none" stroke="#2563eb" stroke-width="4" stroke-linejoin="round" stroke-linecap="round" opacity="1"/>
<circle cx="120.00" cy="612.25" r="4.50" fill="#2563eb" stroke="white" stroke-width="2" opacity="1"/>
<circle cx="142.37" cy="611.57" r="4.50" fill="#2563eb" stroke="white" stroke-width="2" opacity="1"/>
<circle cx="164.75" cy="421.59" r="4.50" fill="#2563eb" stroke="white" stroke-width="2" opacity="1"/>
<circle cx="187.12" cy="322.29" r="4.50" fill="#2563eb" stroke="white" stroke-width="2" opacity="1"/>
<circle cx="209.49" cy="322.29" r="4.50" fill="#2563eb" stroke="white" stroke-width="2" opacity="1"/>
<circle cx="231.86" cy="313.56" r="4.50" fill="#2563eb" stroke="white" stroke-width="2" opacity="1"/>
<circle cx="254.24" cy="274.62" r="4.50" fill="#2563eb" stroke="white" stroke-width="2" opacity="1"/>
<circle cx="276.61" cy="274.62" r="4.50" fill="#2563eb" stroke="white" stroke-width="2" opacity="1"/>
<circle cx="298.98" cy="272.40" r="4.50" fill="#2563eb" stroke="white" stroke-width="2" opacity="1"/>
<circle cx="321.36" cy="252.59" r="4.50" fill="#2563eb" stroke="white" stroke-width="2" opacity="1"/>
<circle cx="343.73" cy="252.59" r="4.50" fill="#2563eb" stroke="white" stroke-width="2" opacity="1"/>
<circle cx="366.10" cy="251.53" r="4.50" fill="#2563eb" stroke="white" stroke-width="2" opacity="1"/>
<circle cx="388.47" cy="240.39" r="4.50" fill="#2563eb" stroke="white" stroke-width="2" opacity="1"/>
<circle cx="410.85" cy="240.39" r="4.50" fill="#2563eb" stroke="white" stroke-width="2" opacity="1"/>
<circle cx="433.22" cy="239.77" r="4.50" fill="#2563eb" stroke="white" stroke-width="2" opacity="1"/>
<circle cx="455.59" cy="233.15" r="4.50" fill="#2563eb" stroke="white" stroke-width="2" opacity="1"/>
<circle cx="477.97" cy="233.15" r="4.50" fill="#2563eb" stroke="white" stroke-width="2" opacity="1"/>
<circle cx="500.34" cy="232.47" r="4.50" fill="#2563eb" stroke="white" stroke-width="2" opacity="1"/>
<circle cx="522.71" cy="228.75" r="4.50" fill="#2563eb" stroke="white" stroke-width="2" opacity="1"/>
<circle cx="545.08" cy="228.75" r="4.50" fill="#2563eb" stroke="white" stroke-width="2" opacity="1"/>
<circle cx="567.46" cy="226.03" r="4.50" fill="#2563eb" stroke="white" stroke-width="2" opacity="1"/>
<circle cx="589.83" cy="225.97" r="4.50" fill="#2563eb" stroke="white" stroke-width="2" opacity="1"/>
<circle cx="612.20" cy="225.97" r="4.50" fill="#2563eb" stroke="white" stroke-width="2" opacity="1"/>
<circle cx="634.58" cy="224.23" r="4.50" fill="#2563eb" stroke="white" stroke-width="2" opacity="1"/>
<circle cx="656.95" cy="224.17" r="4.50" fill="#2563eb" stroke="white" stroke-width="2" opacity="1"/>
<circle cx="679.32" cy="223.06" r="4.50" fill="#2563eb" stroke="white" stroke-width="2" opacity="1"/>
<circle cx="701.69" cy="223.06" r="4.50" fill="#2563eb" stroke="white" stroke-width="2" opacity="1"/>
<circle cx="724.07" cy="223.06" r="4.50" fill="#2563eb" stroke="white" stroke-width="2" opacity="1"/>
<circle cx="746.44" cy="222.31" r="4.50" fill="#2563eb" stroke="white" stroke-width="2" opacity="1"/>
<circle cx="768.81" cy="222.31" r="4.50" fill="#2563eb" stroke="white" stroke-width="2" opacity="1"/>
<circle cx="791.19" cy="221.82" r="4.50" fill="#2563eb" stroke="white" stroke-width="2" opacity="1"/>
<circle cx="813.56" cy="221.82" r="4.50" fill="#2563eb" stroke="white" stroke-width="2" opacity="1"/>
<circle cx="835.93" cy="221.82" r="4.50" fill="#2563eb" stroke="white" stroke-width="2" opacity="1"/>
<circle cx="858.31" cy="221.51" r="4.50" fill="#2563eb" stroke="white" stroke-width="2" opacity="1"/>
<circle cx="880.68" cy="221.45" r="4.50" fill="#2563eb" stroke="white" stroke-width="2" opacity="1"/>
<circle cx="903.05" cy="221.26" r="4.50" fill="#2563eb" stroke="white" stroke-width="2" opacity="1"/>
<circle cx="925.42" cy="221.26" r="4.50" fill="#2563eb" stroke="white" stroke-width="2" opacity="1"/>
<circle cx="947.80" cy="221.14" r="4.50" fill="#2563eb" stroke="white" stroke-width="2" opacity="1"/>
<circle cx="970.17" cy="221.14" r="4.50" fill="#2563eb" stroke="white" stroke-width="2" opacity="1"/>
<circle cx="992.54" cy="221.14" r="4.50" fill="#2563eb" stroke="white" stroke-width="2" opacity="1"/>
<circle cx="1014.92" cy="221.08" r="4.50" fill="#2563eb" stroke="white" stroke-width="2" opacity="1"/>
<circle cx="1037.29" cy="221.01" r="4.50" fill="#2563eb" stroke="white" stroke-width="2" opacity="1"/>
<circle cx="1059.66" cy="221.01" r="4.50" fill="#2563eb" stroke="white" stroke-width="2" opacity="1"/>
<circle cx="1082.03" cy="221.01" r="4.50" fill="#2563eb" stroke="white" stroke-width="2" opacity="1"/>
<circle cx="1104.41" cy="220.95" r="4.50" fill="#2563eb" stroke="white" stroke-width="2" opacity="1"/>
<circle cx="1126.78" cy="220.95" r="4.50" fill="#2563eb" stroke="white" stroke-width="2" opacity="1"/>
<circle cx="1149.15" cy="220.95" r="4.50" fill="#2563eb" stroke="white" stroke-width="2" opacity="1"/>
<circle cx="1171.53" cy="220.95" r="4.50" fill="#2563eb" stroke="white" stroke-width="2" opacity="1"/>
<circle cx="1193.90" cy="220.95" r="4.50" fill="#2563eb" stroke="white" stroke-width="2" opacity="1"/>
<circle cx="1216.27" cy="220.95" r="4.50" fill="#2563eb" stroke="white" stroke-width="2" opacity="1"/>
<circle cx="1238.64" cy="220.95" r="4.50" fill="#2563eb" stroke="white" stroke-width="2" opacity="1"/>
<circle cx="1261.02" cy="220.95" r="4.50" fill="#2563eb" stroke="white" stroke-width="2" opacity="1"/>
<circle cx="1283.39" cy="220.95" r="4.50" fill="#2563eb" stroke="white" stroke-width="2" opacity="1"/>
<circle cx="1305.76" cy="220.95" r="4.50" fill="#2563eb" stroke="white" stroke-width="2" opacity="1"/>
<circle cx="1328.14" cy="220.95" r="4.50" fill="#2563eb" stroke="white" stroke-width="2" opacity="1"/>
<circle cx="1350.51" cy="220.95" r="4.50" fill="#2563eb" stroke="white" stroke-width="2" opacity="1"/>
<circle cx="1372.88" cy="220.95" r="4.50" fill="#2563eb" stroke="white" stroke-width="2" opacity="1"/>
<circle cx="1395.25" cy="220.95" r="4.50" fill="#2563eb" stroke="white" stroke-width="2" opacity="1"/>
<circle cx="1417.63" cy="220.95" r="4.50" fill="#2563eb" stroke="white" stroke-width="2" opacity="1"/>
<circle cx="1440.00" cy="220.95" r="4.50" fill="#2563eb" stroke="white" stroke-width="2" opacity="1"/>
<polyline points="120.00,839.44 142.37,437.99 164.75,433.72 187.12,433.66 209.49,314.00 231.86,313.93 254.24,313.93 276.61,272.46 298.98,272.46 321.36,272.46 343.73,252.09 366.10,252.09 388.47,252.09 410.85,240.64 433.22,240.64 455.59,240.64 477.97,233.70 500.34,233.70 522.71,233.70 545.08,229.31 567.46,229.31 589.83,229.31 612.20,226.46 634.58,226.46 656.95,226.46 679.32,226.46 701.69,224.54 724.07,224.54 746.44,224.54 768.81,223.30 791.19,223.30 813.56,223.30 835.93,222.50 858.31,222.50 880.68,222.50 903.05,222.50 925.42,221.94 947.80,221.94 970.17,221.94 992.54,221.57 1014.92,221.57 1037.29,221.57 1059.66,221.32 1082.03,221.32 1104.41,221.32 1126.78,221.32 1149.15,221.32 1171.53,221.14 1193.90,221.14 1216.27,221.08 1238.64,221.08 1261.02,221.01 1283.39,220.95 1305.76,220.95 1328.14,220.95 1350.51,220.95 1372.88,220.95 1395.25,220.95 1417.63,220.95 1440.00,220.95" fill="none" stroke="#0f766e" stroke-width="4" stroke-linejoin="round" stroke-linecap="round" opacity="1"/>
<circle cx="120.00" cy="839.44" r="4.50" fill="#0f766e" stroke="white" stroke-width="2" opacity="1"/>
<circle cx="142.37" cy="437.99" r="4.50" fill="#0f766e" stroke="white" stroke-width="2" opacity="1"/>
<circle cx="164.75" cy="433.72" r="4.50" fill="#0f766e" stroke="white" stroke-width="2" opacity="1"/>
<circle cx="187.12" cy="433.66" r="4.50" fill="#0f766e" stroke="white" stroke-width="2" opacity="1"/>
<circle cx="209.49" cy="314.00" r="4.50" fill="#0f766e" stroke="white" stroke-width="2" opacity="1"/>
<circle cx="231.86" cy="313.93" r="4.50" fill="#0f766e" stroke="white" stroke-width="2" opacity="1"/>
<circle cx="254.24" cy="313.93" r="4.50" fill="#0f766e" stroke="white" stroke-width="2" opacity="1"/>
<circle cx="276.61" cy="272.46" r="4.50" fill="#0f766e" stroke="white" stroke-width="2" opacity="1"/>
<circle cx="298.98" cy="272.46" r="4.50" fill="#0f766e" stroke="white" stroke-width="2" opacity="1"/>
<circle cx="321.36" cy="272.46" r="4.50" fill="#0f766e" stroke="white" stroke-width="2" opacity="1"/>
<circle cx="343.73" cy="252.09" r="4.50" fill="#0f766e" stroke="white" stroke-width="2" opacity="1"/>
<circle cx="366.10" cy="252.09" r="4.50" fill="#0f766e" stroke="white" stroke-width="2" opacity="1"/>
<circle cx="388.47" cy="252.09" r="4.50" fill="#0f766e" stroke="white" stroke-width="2" opacity="1"/>
<circle cx="410.85" cy="240.64" r="4.50" fill="#0f766e" stroke="white" stroke-width="2" opacity="1"/>
<circle cx="433.22" cy="240.64" r="4.50" fill="#0f766e" stroke="white" stroke-width="2" opacity="1"/>
<circle cx="455.59" cy="240.64" r="4.50" fill="#0f766e" stroke="white" stroke-width="2" opacity="1"/>
<circle cx="477.97" cy="233.70" r="4.50" fill="#0f766e" stroke="white" stroke-width="2" opacity="1"/>
<circle cx="500.34" cy="233.70" r="4.50" fill="#0f766e" stroke="white" stroke-width="2" opacity="1"/>
<circle cx="522.71" cy="233.70" r="4.50" fill="#0f766e" stroke="white" stroke-width="2" opacity="1"/>
<circle cx="545.08" cy="229.31" r="4.50" fill="#0f766e" stroke="white" stroke-width="2" opacity="1"/>
<circle cx="567.46" cy="229.31" r="4.50" fill="#0f766e" stroke="white" stroke-width="2" opacity="1"/>
<circle cx="589.83" cy="229.31" r="4.50" fill="#0f766e" stroke="white" stroke-width="2" opacity="1"/>
<circle cx="612.20" cy="226.46" r="4.50" fill="#0f766e" stroke="white" stroke-width="2" opacity="1"/>
<circle cx="634.58" cy="226.46" r="4.50" fill="#0f766e" stroke="white" stroke-width="2" opacity="1"/>
<circle cx="656.95" cy="226.46" r="4.50" fill="#0f766e" stroke="white" stroke-width="2" opacity="1"/>
<circle cx="679.32" cy="226.46" r="4.50" fill="#0f766e" stroke="white" stroke-width="2" opacity="1"/>
<circle cx="701.69" cy="224.54" r="4.50" fill="#0f766e" stroke="white" stroke-width="2" opacity="1"/>
<circle cx="724.07" cy="224.54" r="4.50" fill="#0f766e" stroke="white" stroke-width="2" opacity="1"/>
<circle cx="746.44" cy="224.54" r="4.50" fill="#0f766e" stroke="white" stroke-width="2" opacity="1"/>
<circle cx="768.81" cy="223.30" r="4.50" fill="#0f766e" stroke="white" stroke-width="2" opacity="1"/>
<circle cx="791.19" cy="223.30" r="4.50" fill="#0f766e" stroke="white" stroke-width="2" opacity="1"/>
<circle cx="813.56" cy="223.30" r="4.50" fill="#0f766e" stroke="white" stroke-width="2" opacity="1"/>
<circle cx="835.93" cy="222.50" r="4.50" fill="#0f766e" stroke="white" stroke-width="2" opacity="1"/>
<circle cx="858.31" cy="222.50" r="4.50" fill="#0f766e" stroke="white" stroke-width="2" opacity="1"/>
<circle cx="880.68" cy="222.50" r="4.50" fill="#0f766e" stroke="white" stroke-width="2" opacity="1"/>
<circle cx="903.05" cy="222.50" r="4.50" fill="#0f766e" stroke="white" stroke-width="2" opacity="1"/>
<circle cx="925.42" cy="221.94" r="4.50" fill="#0f766e" stroke="white" stroke-width="2" opacity="1"/>
<circle cx="947.80" cy="221.94" r="4.50" fill="#0f766e" stroke="white" stroke-width="2" opacity="1"/>
<circle cx="970.17" cy="221.94" r="4.50" fill="#0f766e" stroke="white" stroke-width="2" opacity="1"/>
<circle cx="992.54" cy="221.57" r="4.50" fill="#0f766e" stroke="white" stroke-width="2" opacity="1"/>
<circle cx="1014.92" cy="221.57" r="4.50" fill="#0f766e" stroke="white" stroke-width="2" opacity="1"/>
<circle cx="1037.29" cy="221.57" r="4.50" fill="#0f766e" stroke="white" stroke-width="2" opacity="1"/>
<circle cx="1059.66" cy="221.32" r="4.50" fill="#0f766e" stroke="white" stroke-width="2" opacity="1"/>
<circle cx="1082.03" cy="221.32" r="4.50" fill="#0f766e" stroke="white" stroke-width="2" opacity="1"/>
<circle cx="1104.41" cy="221.32" r="4.50" fill="#0f766e" stroke="white" stroke-width="2" opacity="1"/>
<circle cx="1126.78" cy="221.32" r="4.50" fill="#0f766e" stroke="white" stroke-width="2" opacity="1"/>
<circle cx="1149.15" cy="221.32" r="4.50" fill="#0f766e" stroke="white" stroke-width="2" opacity="1"/>
<circle cx="1171.53" cy="221.14" r="4.50" fill="#0f766e" stroke="white" stroke-width="2" opacity="1"/>
<circle cx="1193.90" cy="221.14" r="4.50" fill="#0f766e" stroke="white" stroke-width="2" opacity="1"/>
<circle cx="1216.27" cy="221.08" r="4.50" fill="#0f766e" stroke="white" stroke-width="2" opacity="1"/>
<circle cx="1238.64" cy="221.08" r="4.50" fill="#0f766e" stroke="white" stroke-width="2" opacity="1"/>
<circle cx="1261.02" cy="221.01" r="4.50" fill="#0f766e" stroke="white" stroke-width="2" opacity="1"/>
<circle cx="1283.39" cy="220.95" r="4.50" fill="#0f766e" stroke="white" stroke-width="2" opacity="1"/>
<circle cx="1305.76" cy="220.95" r="4.50" fill="#0f766e" stroke="white" stroke-width="2" opacity="1"/>
<circle cx="1328.14" cy="220.95" r="4.50" fill="#0f766e" stroke="white" stroke-width="2" opacity="1"/>
<circle cx="1350.51" cy="220.95" r="4.50" fill="#0f766e" stroke="white" stroke-width="2" opacity="1"/>
<circle cx="1372.88" cy="220.95" r="4.50" fill="#0f766e" stroke="white" stroke-width="2" opacity="1"/>
<circle cx="1395.25" cy="220.95" r="4.50" fill="#0f766e" stroke="white" stroke-width="2" opacity="1"/>
<circle cx="1417.63" cy="220.95" r="4.50" fill="#0f766e" stroke="white" stroke-width="2" opacity="1"/>
<circle cx="1440.00" cy="220.95" r="4.50" fill="#0f766e" stroke="white" stroke-width="2" opacity="1"/>
<line x1="120.00" y1="282.86" x2="1440.00" y2="282.86" stroke="#b91c1c" stroke-width="3" stroke-dasharray="10 8"/>
<text x="1435.00" y="272.86" font-family="Aptos, Segoe UI, Arial, sans-serif" font-size="16" font-weight="800" fill="#b91c1c" text-anchor="end" opacity="1">90%</text>
<text x="120.00" y="874.00" font-family="Aptos, Segoe UI, Arial, sans-serif" font-size="14" font-weight="500" fill="#60707a" text-anchor="middle" opacity="1">1</text>
<text x="254.24" y="874.00" font-family="Aptos, Segoe UI, Arial, sans-serif" font-size="14" font-weight="500" fill="#60707a" text-anchor="middle" opacity="1">7</text>
<text x="388.47" y="874.00" font-family="Aptos, Segoe UI, Arial, sans-serif" font-size="14" font-weight="500" fill="#60707a" text-anchor="middle" opacity="1">13</text>
<text x="522.71" y="874.00" font-family="Aptos, Segoe UI, Arial, sans-serif" font-size="14" font-weight="500" fill="#60707a" text-anchor="middle" opacity="1">19</text>
<text x="656.95" y="874.00" font-family="Aptos, Segoe UI, Arial, sans-serif" font-size="14" font-weight="500" fill="#60707a" text-anchor="middle" opacity="1">25</text>
<text x="791.19" y="874.00" font-family="Aptos, Segoe UI, Arial, sans-serif" font-size="14" font-weight="500" fill="#60707a" text-anchor="middle" opacity="1">31</text>
<text x="925.42" y="874.00" font-family="Aptos, Segoe UI, Arial, sans-serif" font-size="14" font-weight="500" fill="#60707a" text-anchor="middle" opacity="1">37</text>
<text x="1059.66" y="874.00" font-family="Aptos, Segoe UI, Arial, sans-serif" font-size="14" font-weight="500" fill="#60707a" text-anchor="middle" opacity="1">43</text>
<text x="1193.90" y="874.00" font-family="Aptos, Segoe UI, Arial, sans-serif" font-size="14" font-weight="500" fill="#60707a" text-anchor="middle" opacity="1">49</text>
<text x="1328.14" y="874.00" font-family="Aptos, Segoe UI, Arial, sans-serif" font-size="14" font-weight="500" fill="#60707a" text-anchor="middle" opacity="1">55</text>
<text x="1440.00" y="874.00" font-family="Aptos, Segoe UI, Arial, sans-serif" font-size="14" font-weight="500" fill="#60707a" text-anchor="middle" opacity="1">60</text>
<rect x="130.00" y="160.00" width="22.00" height="8.00" rx="3" fill="#2563eb" stroke="#2563eb" stroke-width="1" opacity="1"/>
<text x="160.00" y="169.00" font-family="Aptos, Segoe UI, Arial, sans-serif" font-size="15" font-weight="500" fill="#60707a" text-anchor="start" opacity="1">SumUX</text>
<rect x="231.00" y="160.00" width="22.00" height="8.00" rx="3" fill="#0f766e" stroke="#0f766e" stroke-width="1" opacity="1"/>
<text x="261.00" y="169.00" font-family="Aptos, Segoe UI, Arial, sans-serif" font-size="15" font-weight="500" fill="#60707a" text-anchor="start" opacity="1">SumUY</text>
</svg>
