<svg xmlns="http://www.w3.org/2000/svg" width="1600" height="1000" viewBox="0 0 1600 1000">
<defs>
<filter id="shadow" x="-20%" y="-20%" width="140%" height="140%"><feDropShadow dx="0" dy="8" stdDeviation="10" flood-color="#0f172a" flood-opacity="0.10"/></filter>
</defs>
<rect width="1600" height="1000" fill="#fbfaf7"/>
<text x="70.00" y="78.00" font-family="Aptos, Segoe UI, Arial, sans-serif" font-size="34" font-weight="800" fill="#172026" text-anchor="start" opacity="1">ED1 - centros de masa por piso</text>
<text x="70.00" y="115.00" font-family="Aptos, Segoe UI, Arial, sans-serif" font-size="19" font-weight="500" fill="#60707a" text-anchor="start" opacity="1">Plano envolvente y zoom del grupo XCM/YCM exportado desde ETABS</text>
<rect x="90.00" y="245.00" width="430.00" height="155.00" rx="2" fill="#f8fafc" stroke="#334155" stroke-width="2" opacity="1"/>
<text x="90.00" y="227.00" font-family="Aptos, Segoe UI, Arial, sans-serif" font-size="17" font-weight="800" fill="#172026" text-anchor="start" opacity="1">Vista planta completa</text>
<line x1="90.00" y1="245.00" x2="90.00" y2="400.00" stroke="#d8dee3" stroke-width="1"/>
<line x1="176.00" y1="245.00" x2="176.00" y2="400.00" stroke="#d8dee3" stroke-width="1"/>
<line x1="262.00" y1="245.00" x2="262.00" y2="400.00" stroke="#d8dee3" stroke-width="1"/>
<line x1="348.00" y1="245.00" x2="348.00" y2="400.00" stroke="#d8dee3" stroke-width="1"/>
<line x1="434.00" y1="245.00" x2="434.00" y2="400.00" stroke="#d8dee3" stroke-width="1"/>
<line x1="520.00" y1="245.00" x2="520.00" y2="400.00" stroke="#d8dee3" stroke-width="1"/>
<line x1="90.00" y1="245.00" x2="520.00" y2="245.00" stroke="#d8dee3" stroke-width="1"/>
<line x1="90.00" y1="296.67" x2="520.00" y2="296.67" stroke="#d8dee3" stroke-width="1"/>
<line x1="90.00" y1="348.33" x2="520.00" y2="348.33" stroke="#d8dee3" stroke-width="1"/>
<line x1="90.00" y1="400.00" x2="520.00" y2="400.00" stroke="#d8dee3" stroke-width="1"/>
<circle cx="311.38" cy="320.87" r="4.50" fill="#2563eb" stroke="white" stroke-width="2" opacity="0.55"/>
<circle cx="311.34" cy="321.13" r="4.50" fill="#2563eb" stroke="white" stroke-width="2" opacity="0.55"/>
<circle cx="311.34" cy="321.13" r="4.50" fill="#2563eb" stroke="white" stroke-width="2" opacity="0.55"/>
<circle cx="311.34" cy="321.13" r="4.50" fill="#2563eb" stroke="white" stroke-width="2" opacity="0.55"/>
<circle cx="311.34" cy="321.13" r="4.50" fill="#2563eb" stroke="white" stroke-width="2" opacity="0.55"/>
<circle cx="311.34" cy="321.13" r="4.50" fill="#2563eb" stroke="white" stroke-width="2" opacity="0.55"/>
<circle cx="311.34" cy="321.13" r="4.50" fill="#2563eb" stroke="white" stroke-width="2" opacity="0.55"/>
<circle cx="311.34" cy="321.13" r="4.50" fill="#2563eb" stroke="white" stroke-width="2" opacity="0.55"/>
<circle cx="311.34" cy="321.13" r="4.50" fill="#2563eb" stroke="white" stroke-width="2" opacity="0.55"/>
<circle cx="311.34" cy="321.13" r="4.50" fill="#2563eb" stroke="white" stroke-width="2" opacity="0.55"/>
<circle cx="311.34" cy="321.13" r="4.50" fill="#2563eb" stroke="white" stroke-width="2" opacity="0.55"/>
<circle cx="311.34" cy="321.13" r="4.50" fill="#2563eb" stroke="white" stroke-width="2" opacity="0.55"/>
<circle cx="311.34" cy="321.13" r="4.50" fill="#2563eb" stroke="white" stroke-width="2" opacity="0.55"/>
<circle cx="311.34" cy="321.13" r="4.50" fill="#2563eb" stroke="white" stroke-width="2" opacity="0.55"/>
<circle cx="311.34" cy="321.13" r="4.50" fill="#2563eb" stroke="white" stroke-width="2" opacity="0.55"/>
<circle cx="311.34" cy="321.13" r="4.50" fill="#2563eb" stroke="white" stroke-width="2" opacity="0.55"/>
<circle cx="311.34" cy="321.13" r="4.50" fill="#2563eb" stroke="white" stroke-width="2" opacity="0.55"/>
<circle cx="311.34" cy="321.13" r="4.50" fill="#2563eb" stroke="white" stroke-width="2" opacity="0.55"/>
<circle cx="311.34" cy="321.13" r="4.50" fill="#2563eb" stroke="white" stroke-width="2" opacity="0.55"/>
<circle cx="311.18" cy="322.11" r="4.50" fill="#2563eb" stroke="white" stroke-width="2" opacity="0.55"/>
<rect x="620.00" y="185.00" width="780.00" height="610.00" rx="4" fill="#f8fafc" stroke="#334155" stroke-width="2" opacity="1"/>
<text x="620.00" y="167.00" font-family="Aptos, Segoe UI, Arial, sans-serif" font-size="17" font-weight="800" fill="#172026" text-anchor="start" opacity="1">Zoom XCM/YCM</text>
<line x1="620.00" y1="185.00" x2="620.00" y2="795.00" stroke="#d8dee3" stroke-width="1"/>
<line x1="620.00" y1="795.00" x2="1400.00" y2="795.00" stroke="#d8dee3" stroke-width="1"/>
<line x1="776.00" y1="185.00" x2="776.00" y2="795.00" stroke="#d8dee3" stroke-width="1"/>
<line x1="620.00" y1="673.00" x2="1400.00" y2="673.00" stroke="#d8dee3" stroke-width="1"/>
<line x1="932.00" y1="185.00" x2="932.00" y2="795.00" stroke="#d8dee3" stroke-width="1"/>
<line x1="620.00" y1="551.00" x2="1400.00" y2="551.00" stroke="#d8dee3" stroke-width="1"/>
<line x1="1088.00" y1="185.00" x2="1088.00" y2="795.00" stroke="#d8dee3" stroke-width="1"/>
<line x1="620.00" y1="429.00" x2="1400.00" y2="429.00" stroke="#d8dee3" stroke-width="1"/>
<line x1="1244.00" y1="185.00" x2="1244.00" y2="795.00" stroke="#d8dee3" stroke-width="1"/>
<line x1="620.00" y1="307.00" x2="1400.00" y2="307.00" stroke="#d8dee3" stroke-width="1"/>
<line x1="1400.00" y1="185.00" x2="1400.00" y2="795.00" stroke="#d8dee3" stroke-width="1"/>
<line x1="620.00" y1="185.00" x2="1400.00" y2="185.00" stroke="#d8dee3" stroke-width="1"/>
<polyline points="1141.89,259.12 1116.36,328.04 1116.36,328.04 1116.36,328.04 1116.36,328.04 1116.36,328.04 1116.36,328.04 1116.36,328.04 1116.36,328.04 1116.36,328.04 1116.36,328.04 1116.36,328.04 1116.36,328.04 1116.36,328.04 1116.36,328.04 1116.36,328.04 1116.36,328.04 1116.36,328.04 1116.36,328.04 1014.25,596.75" fill="none" stroke="#2563eb" stroke-width="5" stroke-linejoin="round" stroke-linecap="round" opacity="1"/>
<circle cx="1141.89" cy="259.12" r="8.00" fill="#2563eb" stroke="white" stroke-width="2" opacity="0.85"/>
<circle cx="1116.36" cy="328.04" r="5.50" fill="#2563eb" stroke="white" stroke-width="2" opacity="0.85"/>
<circle cx="1116.36" cy="328.04" r="5.50" fill="#2563eb" stroke="white" stroke-width="2" opacity="0.85"/>
<circle cx="1116.36" cy="328.04" r="5.50" fill="#2563eb" stroke="white" stroke-width="2" opacity="0.85"/>
<circle cx="1116.36" cy="328.04" r="5.50" fill="#2563eb" stroke="white" stroke-width="2" opacity="0.85"/>
<circle cx="1116.36" cy="328.04" r="5.50" fill="#2563eb" stroke="white" stroke-width="2" opacity="0.85"/>
<circle cx="1116.36" cy="328.04" r="5.50" fill="#2563eb" stroke="white" stroke-width="2" opacity="0.85"/>
<circle cx="1116.36" cy="328.04" r="5.50" fill="#2563eb" stroke="white" stroke-width="2" opacity="0.85"/>
<circle cx="1116.36" cy="328.04" r="5.50" fill="#2563eb" stroke="white" stroke-width="2" opacity="0.85"/>
<circle cx="1116.36" cy="328.04" r="5.50" fill="#2563eb" stroke="white" stroke-width="2" opacity="0.85"/>
<circle cx="1116.36" cy="328.04" r="5.50" fill="#2563eb" stroke="white" stroke-width="2" opacity="0.85"/>
<circle cx="1116.36" cy="328.04" r="5.50" fill="#2563eb" stroke="white" stroke-width="2" opacity="0.85"/>
<circle cx="1116.36" cy="328.04" r="5.50" fill="#2563eb" stroke="white" stroke-width="2" opacity="0.85"/>
<circle cx="1116.36" cy="328.04" r="5.50" fill="#2563eb" stroke="white" stroke-width="2" opacity="0.85"/>
<circle cx="1116.36" cy="328.04" r="5.50" fill="#2563eb" stroke="white" stroke-width="2" opacity="0.85"/>
<circle cx="1116.36" cy="328.04" r="5.50" fill="#2563eb" stroke="white" stroke-width="2" opacity="0.85"/>
<circle cx="1116.36" cy="328.04" r="5.50" fill="#2563eb" stroke="white" stroke-width="2" opacity="0.85"/>
<circle cx="1116.36" cy="328.04" r="5.50" fill="#2563eb" stroke="white" stroke-width="2" opacity="0.85"/>
<circle cx="1116.36" cy="328.04" r="5.50" fill="#2563eb" stroke="white" stroke-width="2" opacity="0.85"/>
<circle cx="1014.25" cy="596.75" r="8.00" fill="#d97706" stroke="white" stroke-width="2" opacity="0.85"/>
<text x="638.00" y="831.00" font-family="Aptos, Segoe UI, Arial, sans-serif" font-size="15" font-weight="500" fill="#60707a" text-anchor="start" opacity="1">XCM [m] 19.75 -&gt; 19.86</text>
<text x="616.00" y="139.00" font-family="Aptos, Segoe UI, Arial, sans-serif" font-size="15" font-weight="500" fill="#60707a" text-anchor="start" opacity="1">YCM [m] 6.88 -&gt; 7.08</text>
<text x="90.00" y="520.00" font-family="Aptos, Segoe UI, Arial, sans-serif" font-size="22" font-weight="850" fill="#172026" text-anchor="start" opacity="1">Lectura</text>
<text x="90.00" y="560.00" font-family="Aptos, Segoe UI, Arial, sans-serif" font-size="17" font-weight="560" fill="#172026" text-anchor="start" opacity="1">Plantas tipo: CM cerca de X=19.82 m, Y=7.03 m.</text>
<text x="90.00" y="594.00" font-family="Aptos, Segoe UI, Arial, sans-serif" font-size="17" font-weight="560" fill="#172026" text-anchor="start" opacity="1">Cubierta: leve corrimiento por cargas de techo.</text>
<text x="90.00" y="628.00" font-family="Aptos, Segoe UI, Arial, sans-serif" font-size="17" font-weight="560" fill="#60707a" text-anchor="start" opacity="1">CR no se sobreinterpreta: tabla no expone XCR/YCR.</text>
</svg>
