<svg xmlns="http://www.w3.org/2000/svg" width="1600" height="1000" viewBox="0 0 1600 1000">
<defs>
<filter id="shadow" x="-20%" y="-20%" width="140%" height="140%"><feDropShadow dx="0" dy="8" stdDeviation="10" flood-color="#0f172a" flood-opacity="0.10"/></filter>
</defs>
<rect width="1600" height="1000" fill="#fbfaf7"/>
<text x="70.00" y="78.00" font-family="Aptos, Segoe UI, Arial, sans-serif" font-size="34" font-weight="800" fill="#172026" text-anchor="start" opacity="1">ED2 - modos dominantes</text>
<text x="70.00" y="115.00" font-family="Aptos, Segoe UI, Arial, sans-serif" font-size="19" font-weight="500" fill="#60707a" text-anchor="start" opacity="1">Primeros tres modos cubren Y, X y RZ como espera una planta sim&#233;trica</text>
<line x1="120.00" y1="840.00" x2="1440.00" y2="840.00" stroke="#334155" stroke-width="2"/>
<line x1="120.00" y1="190.00" x2="120.00" y2="840.00" stroke="#334155" stroke-width="2"/>
<line x1="120.00" y1="840.00" x2="1440.00" y2="840.00" stroke="#d8dee3" stroke-width="1"/>
<text x="105.00" y="845.00" font-family="Aptos, Segoe UI, Arial, sans-serif" font-size="14" font-weight="500" fill="#60707a" text-anchor="end" opacity="1">0</text>
<line x1="120.00" y1="710.00" x2="1440.00" y2="710.00" stroke="#d8dee3" stroke-width="1"/>
<text x="105.00" y="715.00" font-family="Aptos, Segoe UI, Arial, sans-serif" font-size="14" font-weight="500" fill="#60707a" text-anchor="end" opacity="1">0.2</text>
<line x1="120.00" y1="580.00" x2="1440.00" y2="580.00" stroke="#d8dee3" stroke-width="1"/>
<text x="105.00" y="585.00" font-family="Aptos, Segoe UI, Arial, sans-serif" font-size="14" font-weight="500" fill="#60707a" text-anchor="end" opacity="1">0.4</text>
<line x1="120.00" y1="450.00" x2="1440.00" y2="450.00" stroke="#d8dee3" stroke-width="1"/>
<text x="105.00" y="455.00" font-family="Aptos, Segoe UI, Arial, sans-serif" font-size="14" font-weight="500" fill="#60707a" text-anchor="end" opacity="1">0.6</text>
<line x1="120.00" y1="320.00" x2="1440.00" y2="320.00" stroke="#d8dee3" stroke-width="1"/>
<text x="105.00" y="325.00" font-family="Aptos, Segoe UI, Arial, sans-serif" font-size="14" font-weight="500" fill="#60707a" text-anchor="end" opacity="1">0.8</text>
<line x1="120.00" y1="190.00" x2="1440.00" y2="190.00" stroke="#d8dee3" stroke-width="1"/>
<text x="105.00" y="195.00" font-family="Aptos, Segoe UI, Arial, sans-serif" font-size="14" font-weight="500" fill="#60707a" text-anchor="end" opacity="1">1</text>
<polyline points="120.00,840.00 214.29,276.51 308.57,840.00 402.86,840.00 497.14,774.87 591.43,840.00 685.71,840.00 780.00,825.25 874.29,840.00 968.57,840.00 1062.86,835.12 1157.14,840.00 1251.43,840.00 1345.71,838.18 1440.00,840.00" fill="none" stroke="#2563eb" stroke-width="4" stroke-linejoin="round" stroke-linecap="round" opacity="1"/>
<circle cx="120.00" cy="840.00" r="4.50" fill="#2563eb" stroke="white" stroke-width="2" opacity="1"/>
<circle cx="214.29" cy="276.51" r="4.50" fill="#2563eb" stroke="white" stroke-width="2" opacity="1"/>
<circle cx="308.57" cy="840.00" r="4.50" fill="#2563eb" stroke="white" stroke-width="2" opacity="1"/>
<circle cx="402.86" cy="840.00" r="4.50" fill="#2563eb" stroke="white" stroke-width="2" opacity="1"/>
<circle cx="497.14" cy="774.87" r="4.50" fill="#2563eb" stroke="white" stroke-width="2" opacity="1"/>
<circle cx="591.43" cy="840.00" r="4.50" fill="#2563eb" stroke="white" stroke-width="2" opacity="1"/>
<circle cx="685.71" cy="840.00" r="4.50" fill="#2563eb" stroke="white" stroke-width="2" opacity="1"/>
<circle cx="780.00" cy="825.25" r="4.50" fill="#2563eb" stroke="white" stroke-width="2" opacity="1"/>
<circle cx="874.29" cy="840.00" r="4.50" fill="#2563eb" stroke="white" stroke-width="2" opacity="1"/>
<circle cx="968.57" cy="840.00" r="4.50" fill="#2563eb" stroke="white" stroke-width="2" opacity="1"/>
<circle cx="1062.86" cy="835.12" r="4.50" fill="#2563eb" stroke="white" stroke-width="2" opacity="1"/>
<circle cx="1157.14" cy="840.00" r="4.50" fill="#2563eb" stroke="white" stroke-width="2" opacity="1"/>
<circle cx="1251.43" cy="840.00" r="4.50" fill="#2563eb" stroke="white" stroke-width="2" opacity="1"/>
<circle cx="1345.71" cy="838.18" r="4.50" fill="#2563eb" stroke="white" stroke-width="2" opacity="1"/>
<circle cx="1440.00" cy="840.00" r="4.50" fill="#2563eb" stroke="white" stroke-width="2" opacity="1"/>
<polyline points="120.00,276.51 214.29,840.00 308.57,840.00 402.86,774.87 497.14,840.00 591.43,840.00 685.71,825.25 780.00,840.00 874.29,840.00 968.57,835.12 1062.86,840.00 1157.14,840.00 1251.43,838.18 1345.71,840.00 1440.00,840.00" fill="none" stroke="#0f766e" stroke-width="4" stroke-linejoin="round" stroke-linecap="round" opacity="1"/>
<circle cx="120.00" cy="276.51" r="4.50" fill="#0f766e" stroke="white" stroke-width="2" opacity="1"/>
<circle cx="214.29" cy="840.00" r="4.50" fill="#0f766e" stroke="white" stroke-width="2" opacity="1"/>
<circle cx="308.57" cy="840.00" r="4.50" fill="#0f766e" stroke="white" stroke-width="2" opacity="1"/>
<circle cx="402.86" cy="774.87" r="4.50" fill="#0f766e" stroke="white" stroke-width="2" opacity="1"/>
<circle cx="497.14" cy="840.00" r="4.50" fill="#0f766e" stroke="white" stroke-width="2" opacity="1"/>
<circle cx="591.43" cy="840.00" r="4.50" fill="#0f766e" stroke="white" stroke-width="2" opacity="1"/>
<circle cx="685.71" cy="825.25" r="4.50" fill="#0f766e" stroke="white" stroke-width="2" opacity="1"/>
<circle cx="780.00" cy="840.00" r="4.50" fill="#0f766e" stroke="white" stroke-width="2" opacity="1"/>
<circle cx="874.29" cy="840.00" r="4.50" fill="#0f766e" stroke="white" stroke-width="2" opacity="1"/>
<circle cx="968.57" cy="835.12" r="4.50" fill="#0f766e" stroke="white" stroke-width="2" opacity="1"/>
<circle cx="1062.86" cy="840.00" r="4.50" fill="#0f766e" stroke="white" stroke-width="2" opacity="1"/>
<circle cx="1157.14" cy="840.00" r="4.50" fill="#0f766e" stroke="white" stroke-width="2" opacity="1"/>
<circle cx="1251.43" cy="838.18" r="4.50" fill="#0f766e" stroke="white" stroke-width="2" opacity="1"/>
<circle cx="1345.71" cy="840.00" r="4.50" fill="#0f766e" stroke="white" stroke-width="2" opacity="1"/>
<circle cx="1440.00" cy="840.00" r="4.50" fill="#0f766e" stroke="white" stroke-width="2" opacity="1"/>
<polyline points="120.00,840.00 214.29,840.00 308.57,275.74 402.86,840.00 497.14,840.00 591.43,775.59 685.71,840.00 780.00,840.00 874.29,825.38 968.57,840.00 1062.86,840.00 1157.14,835.12 1251.43,840.00 1345.71,840.00 1440.00,838.25" fill="none" stroke="#7c3aed" stroke-width="4" stroke-linejoin="round" stroke-linecap="round" opacity="1"/>
<circle cx="120.00" cy="840.00" r="4.50" fill="#7c3aed" stroke="white" stroke-width="2" opacity="1"/>
<circle cx="214.29" cy="840.00" r="4.50" fill="#7c3aed" stroke="white" stroke-width="2" opacity="1"/>
<circle cx="308.57" cy="275.74" r="4.50" fill="#7c3aed" stroke="white" stroke-width="2" opacity="1"/>
<circle cx="402.86" cy="840.00" r="4.50" fill="#7c3aed" stroke="white" stroke-width="2" opacity="1"/>
<circle cx="497.14" cy="840.00" r="4.50" fill="#7c3aed" stroke="white" stroke-width="2" opacity="1"/>
<circle cx="591.43" cy="775.59" r="4.50" fill="#7c3aed" stroke="white" stroke-width="2" opacity="1"/>
<circle cx="685.71" cy="840.00" r="4.50" fill="#7c3aed" stroke="white" stroke-width="2" opacity="1"/>
<circle cx="780.00" cy="840.00" r="4.50" fill="#7c3aed" stroke="white" stroke-width="2" opacity="1"/>
<circle cx="874.29" cy="825.38" r="4.50" fill="#7c3aed" stroke="white" stroke-width="2" opacity="1"/>
<circle cx="968.57" cy="840.00" r="4.50" fill="#7c3aed" stroke="white" stroke-width="2" opacity="1"/>
<circle cx="1062.86" cy="840.00" r="4.50" fill="#7c3aed" stroke="white" stroke-width="2" opacity="1"/>
<circle cx="1157.14" cy="835.12" r="4.50" fill="#7c3aed" stroke="white" stroke-width="2" opacity="1"/>
<circle cx="1251.43" cy="840.00" r="4.50" fill="#7c3aed" stroke="white" stroke-width="2" opacity="1"/>
<circle cx="1345.71" cy="840.00" r="4.50" fill="#7c3aed" stroke="white" stroke-width="2" opacity="1"/>
<circle cx="1440.00" cy="838.25" r="4.50" fill="#7c3aed" stroke="white" stroke-width="2" opacity="1"/>
<text x="120.00" y="874.00" font-family="Aptos, Segoe UI, Arial, sans-serif" font-size="14" font-weight="500" fill="#60707a" text-anchor="middle" opacity="1">1</text>
<text x="214.29" y="874.00" font-family="Aptos, Segoe UI, Arial, sans-serif" font-size="14" font-weight="500" fill="#60707a" text-anchor="middle" opacity="1">2</text>
<text x="308.57" y="874.00" font-family="Aptos, Segoe UI, Arial, sans-serif" font-size="14" font-weight="500" fill="#60707a" text-anchor="middle" opacity="1">3</text>
<text x="402.86" y="874.00" font-family="Aptos, Segoe UI, Arial, sans-serif" font-size="14" font-weight="500" fill="#60707a" text-anchor="middle" opacity="1">4</text>
<text x="497.14" y="874.00" font-family="Aptos, Segoe UI, Arial, sans-serif" font-size="14" font-weight="500" fill="#60707a" text-anchor="middle" opacity="1">5</text>
<text x="591.43" y="874.00" font-family="Aptos, Segoe UI, Arial, sans-serif" font-size="14" font-weight="500" fill="#60707a" text-anchor="middle" opacity="1">6</text>
<text x="685.71" y="874.00" font-family="Aptos, Segoe UI, Arial, sans-serif" font-size="14" font-weight="500" fill="#60707a" text-anchor="middle" opacity="1">7</text>
<text x="780.00" y="874.00" font-family="Aptos, Segoe UI, Arial, sans-serif" font-size="14" font-weight="500" fill="#60707a" text-anchor="middle" opacity="1">8</text>
<text x="874.29" y="874.00" font-family="Aptos, Segoe UI, Arial, sans-serif" font-size="14" font-weight="500" fill="#60707a" text-anchor="middle" opacity="1">9</text>
<text x="968.57" y="874.00" font-family="Aptos, Segoe UI, Arial, sans-serif" font-size="14" font-weight="500" fill="#60707a" text-anchor="middle" opacity="1">10</text>
<text x="1062.86" y="874.00" font-family="Aptos, Segoe UI, Arial, sans-serif" font-size="14" font-weight="500" fill="#60707a" text-anchor="middle" opacity="1">11</text>
<text x="1157.14" y="874.00" font-family="Aptos, Segoe UI, Arial, sans-serif" font-size="14" font-weight="500" fill="#60707a" text-anchor="middle" opacity="1">12</text>
<text x="1251.43" y="874.00" font-family="Aptos, Segoe UI, Arial, sans-serif" font-size="14" font-weight="500" fill="#60707a" text-anchor="middle" opacity="1">13</text>
<text x="1345.71" y="874.00" font-family="Aptos, Segoe UI, Arial, sans-serif" font-size="14" font-weight="500" fill="#60707a" text-anchor="middle" opacity="1">14</text>
<text x="1440.00" y="874.00" font-family="Aptos, Segoe UI, Arial, sans-serif" font-size="14" font-weight="500" fill="#60707a" text-anchor="middle" opacity="1">15</text>
<rect x="130.00" y="160.00" width="22.00" height="8.00" rx="3" fill="#2563eb" stroke="#2563eb" stroke-width="1" opacity="1"/>
<text x="160.00" y="169.00" font-family="Aptos, Segoe UI, Arial, sans-serif" font-size="15" font-weight="500" fill="#60707a" text-anchor="start" opacity="1">UX</text>
<rect x="206.40" y="160.00" width="22.00" height="8.00" rx="3" fill="#0f766e" stroke="#0f766e" stroke-width="1" opacity="1"/>
<text x="236.40" y="169.00" font-family="Aptos, Segoe UI, Arial, sans-serif" font-size="15" font-weight="500" fill="#60707a" text-anchor="start" opacity="1">UY</text>
<rect x="282.80" y="160.00" width="22.00" height="8.00" rx="3" fill="#7c3aed" stroke="#7c3aed" stroke-width="1" opacity="1"/>
<text x="312.80" y="169.00" font-family="Aptos, Segoe UI, Arial, sans-serif" font-size="15" font-weight="500" fill="#60707a" text-anchor="start" opacity="1">RZ</text>
</svg>
