<svg xmlns="http://www.w3.org/2000/svg" width="1600" height="1000" viewBox="0 0 1600 1000">
<defs>
<filter id="shadow" x="-20%" y="-20%" width="140%" height="140%"><feDropShadow dx="0" dy="8" stdDeviation="10" flood-color="#0f172a" flood-opacity="0.10"/></filter>
</defs>
<rect width="1600" height="1000" fill="#fbfaf7"/>
<text x="70.00" y="78.00" font-family="Aptos, Segoe UI, Arial, sans-serif" font-size="34" font-weight="800" fill="#172026" text-anchor="start" opacity="1">ED2 - simetr&#237;a en planta y excentricidad accidental</text>
<text x="70.00" y="115.00" font-family="Aptos, Segoe UI, Arial, sans-serif" font-size="19" font-weight="500" fill="#60707a" text-anchor="start" opacity="1">Planta 32.5 x 32.5 m, grilla 6x6, CM=CR por simetr&#237;a; ea techo=3.25 m</text>
<rect x="360.00" y="190.00" width="640.00" height="640.00" rx="2" fill="#f8fafc" stroke="#334155" stroke-width="2" opacity="1"/>
<line x1="360.00" y1="190.00" x2="360.00" y2="830.00" stroke="#d8dee3" stroke-width="1"/>
<line x1="360.00" y1="190.00" x2="1000.00" y2="190.00" stroke="#d8dee3" stroke-width="1"/>
<line x1="488.00" y1="190.00" x2="488.00" y2="830.00" stroke="#d8dee3" stroke-width="1"/>
<line x1="360.00" y1="318.00" x2="1000.00" y2="318.00" stroke="#d8dee3" stroke-width="1"/>
<line x1="616.00" y1="190.00" x2="616.00" y2="830.00" stroke="#d8dee3" stroke-width="1"/>
<line x1="360.00" y1="446.00" x2="1000.00" y2="446.00" stroke="#d8dee3" stroke-width="1"/>
<line x1="744.00" y1="190.00" x2="744.00" y2="830.00" stroke="#d8dee3" stroke-width="1"/>
<line x1="360.00" y1="574.00" x2="1000.00" y2="574.00" stroke="#d8dee3" stroke-width="1"/>
<line x1="872.00" y1="190.00" x2="872.00" y2="830.00" stroke="#d8dee3" stroke-width="1"/>
<line x1="360.00" y1="702.00" x2="1000.00" y2="702.00" stroke="#d8dee3" stroke-width="1"/>
<line x1="1000.00" y1="190.00" x2="1000.00" y2="830.00" stroke="#d8dee3" stroke-width="1"/>
<line x1="360.00" y1="830.00" x2="1000.00" y2="830.00" stroke="#d8dee3" stroke-width="1"/>
<circle cx="680.00" cy="510.00" r="12.00" fill="#15803d" stroke="white" stroke-width="2" opacity="1"/>
<text x="700.00" y="516.00" font-family="Aptos, Segoe UI, Arial, sans-serif" font-size="22" font-weight="800" fill="#15803d" text-anchor="start" opacity="1">CM = CR</text>
<line x1="680.00" y1="420.00" x2="744.00" y2="420.00" stroke="#d97706" stroke-width="5"/>
<text x="756.00" y="426.00" font-family="Aptos, Segoe UI, Arial, sans-serif" font-size="19" font-weight="800" fill="#d97706" text-anchor="start" opacity="1">ea=0.10*b</text>
</svg>
