<svg xmlns="http://www.w3.org/2000/svg" width="1600" height="1000" viewBox="0 0 1600 1000">
<defs>
<filter id="shadow" x="-20%" y="-20%" width="140%" height="140%"><feDropShadow dx="0" dy="8" stdDeviation="10" flood-color="#0f172a" flood-opacity="0.10"/></filter>
</defs>
<rect width="1600" height="1000" fill="#fbfaf7"/>
<text x="70.00" y="78.00" font-family="Aptos, Segoe UI, Arial, sans-serif" font-size="34" font-weight="800" fill="#172026" text-anchor="start" opacity="1">ED2 - distribucion estatica por piso</text>
<text x="70.00" y="115.00" font-family="Aptos, Segoe UI, Arial, sans-serif" font-size="19" font-weight="500" fill="#60707a" text-anchor="start" opacity="1">Fuerza de piso Fk y corte acumulado Vk desde formula AkPk</text>
<line x1="190.00" y1="890.00" x2="1370.00" y2="890.00" stroke="#334155" stroke-width="2"/>
<line x1="190.00" y1="170.00" x2="190.00" y2="890.00" stroke="#334155" stroke-width="2"/>
<line x1="190.00" y1="170.00" x2="190.00" y2="890.00" stroke="#d8dee3" stroke-width="1"/>
<text x="190.00" y="918.00" font-family="Aptos, Segoe UI, Arial, sans-serif" font-size="13" font-weight="500" fill="#60707a" text-anchor="middle" opacity="1">0</text>
<line x1="426.00" y1="170.00" x2="426.00" y2="890.00" stroke="#d8dee3" stroke-width="1"/>
<text x="426.00" y="918.00" font-family="Aptos, Segoe UI, Arial, sans-serif" font-size="13" font-weight="500" fill="#60707a" text-anchor="middle" opacity="1">74</text>
<line x1="662.00" y1="170.00" x2="662.00" y2="890.00" stroke="#d8dee3" stroke-width="1"/>
<text x="662.00" y="918.00" font-family="Aptos, Segoe UI, Arial, sans-serif" font-size="13" font-weight="500" fill="#60707a" text-anchor="middle" opacity="1">147</text>
<line x1="898.00" y1="170.00" x2="898.00" y2="890.00" stroke="#d8dee3" stroke-width="1"/>
<text x="898.00" y="918.00" font-family="Aptos, Segoe UI, Arial, sans-serif" font-size="13" font-weight="500" fill="#60707a" text-anchor="middle" opacity="1">221</text>
<line x1="1134.00" y1="170.00" x2="1134.00" y2="890.00" stroke="#d8dee3" stroke-width="1"/>
<text x="1134.00" y="918.00" font-family="Aptos, Segoe UI, Arial, sans-serif" font-size="13" font-weight="500" fill="#60707a" text-anchor="middle" opacity="1">294</text>
<line x1="1370.00" y1="170.00" x2="1370.00" y2="890.00" stroke="#d8dee3" stroke-width="1"/>
<text x="1370.00" y="918.00" font-family="Aptos, Segoe UI, Arial, sans-serif" font-size="13" font-weight="500" fill="#60707a" text-anchor="middle" opacity="1">368</text>
<line x1="182.00" y1="890.00" x2="1370.00" y2="890.00" stroke="#d8dee3" stroke-width="1"/>
<text x="170.00" y="895.00" font-family="Aptos, Segoe UI, Arial, sans-serif" font-size="13" font-weight="500" fill="#60707a" text-anchor="end" opacity="1">Story1</text>
<line x1="182.00" y1="710.00" x2="1370.00" y2="710.00" stroke="#d8dee3" stroke-width="1"/>
<text x="170.00" y="715.00" font-family="Aptos, Segoe UI, Arial, sans-serif" font-size="13" font-weight="500" fill="#60707a" text-anchor="end" opacity="1">Story2</text>
<line x1="182.00" y1="530.00" x2="1370.00" y2="530.00" stroke="#d8dee3" stroke-width="1"/>
<text x="170.00" y="535.00" font-family="Aptos, Segoe UI, Arial, sans-serif" font-size="13" font-weight="500" fill="#60707a" text-anchor="end" opacity="1">Story3</text>
<line x1="182.00" y1="350.00" x2="1370.00" y2="350.00" stroke="#d8dee3" stroke-width="1"/>
<text x="170.00" y="355.00" font-family="Aptos, Segoe UI, Arial, sans-serif" font-size="13" font-weight="500" fill="#60707a" text-anchor="end" opacity="1">Story4</text>
<line x1="182.00" y1="170.00" x2="1370.00" y2="170.00" stroke="#d8dee3" stroke-width="1"/>
<text x="170.00" y="175.00" font-family="Aptos, Segoe UI, Arial, sans-serif" font-size="13" font-weight="500" fill="#60707a" text-anchor="end" opacity="1">Story5</text>
<polyline points="524.66,890.00 512.54,710.00 559.70,530.00 671.81,350.00 1216.09,170.00" fill="none" stroke="#2563eb" stroke-width="4" stroke-linejoin="round" stroke-linecap="round" opacity="1"/>
<circle cx="524.66" cy="890.00" r="4.20" fill="#2563eb" stroke="white" stroke-width="2" opacity="1"/>
<circle cx="512.54" cy="710.00" r="4.20" fill="#2563eb" stroke="white" stroke-width="2" opacity="1"/>
<circle cx="559.70" cy="530.00" r="4.20" fill="#2563eb" stroke="white" stroke-width="2" opacity="1"/>
<circle cx="671.81" cy="350.00" r="4.20" fill="#2563eb" stroke="white" stroke-width="2" opacity="1"/>
<circle cx="1216.09" cy="170.00" r="4.20" fill="#2563eb" stroke="white" stroke-width="2" opacity="1"/>
<polyline points="823.70,890.00 740.03,710.00 659.40,530.00 566.97,350.00 446.52,170.00" fill="none" stroke="#d97706" stroke-width="4" stroke-linejoin="round" stroke-linecap="round" opacity="1"/>
<circle cx="823.70" cy="890.00" r="4.20" fill="#d97706" stroke="white" stroke-width="2" opacity="1"/>
<circle cx="740.03" cy="710.00" r="4.20" fill="#d97706" stroke="white" stroke-width="2" opacity="1"/>
<circle cx="659.40" cy="530.00" r="4.20" fill="#d97706" stroke="white" stroke-width="2" opacity="1"/>
<circle cx="566.97" cy="350.00" r="4.20" fill="#d97706" stroke="white" stroke-width="2" opacity="1"/>
<circle cx="446.52" cy="170.00" r="4.20" fill="#d97706" stroke="white" stroke-width="2" opacity="1"/>
<rect x="190.00" y="134.00" width="22.00" height="8.00" rx="3" fill="#2563eb" stroke="#2563eb" stroke-width="1" opacity="1"/>
<text x="220.00" y="143.00" font-family="Aptos, Segoe UI, Arial, sans-serif" font-size="15" font-weight="500" fill="#60707a" text-anchor="start" opacity="1">Fk</text>
<rect x="266.40" y="134.00" width="22.00" height="8.00" rx="3" fill="#d97706" stroke="#d97706" stroke-width="1" opacity="1"/>
<text x="296.40" y="143.00" font-family="Aptos, Segoe UI, Arial, sans-serif" font-size="15" font-weight="500" fill="#60707a" text-anchor="start" opacity="1">Vk/4</text>
</svg>
