<svg xmlns="http://www.w3.org/2000/svg" width="1600" height="1000" viewBox="0 0 1600 1000">
<defs>
<filter id="shadow" x="-20%" y="-20%" width="140%" height="140%"><feDropShadow dx="0" dy="8" stdDeviation="10" flood-color="#0f172a" flood-opacity="0.10"/></filter>
</defs>
<rect width="1600" height="1000" fill="#fbfaf7"/>
<text x="70.00" y="78.00" font-family="Aptos, Segoe UI, Arial, sans-serif" font-size="34" font-weight="800" fill="#172026" text-anchor="start" opacity="1">ED2 - drift CM y exceso torsional</text>
<text x="70.00" y="115.00" font-family="Aptos, Segoe UI, Arial, sans-serif" font-size="19" font-weight="500" fill="#60707a" text-anchor="start" opacity="1">CM &lt;=0.002 y exceso &lt;=0.001; ambos por debajo del l&#237;mite</text>
<line x1="190.00" y1="890.00" x2="1370.00" y2="890.00" stroke="#334155" stroke-width="2"/>
<line x1="190.00" y1="170.00" x2="190.00" y2="890.00" stroke="#334155" stroke-width="2"/>
<line x1="190.00" y1="170.00" x2="190.00" y2="890.00" stroke="#d8dee3" stroke-width="1"/>
<text x="190.00" y="918.00" font-family="Aptos, Segoe UI, Arial, sans-serif" font-size="13" font-weight="500" fill="#60707a" text-anchor="middle" opacity="1">0.0000</text>
<line x1="426.00" y1="170.00" x2="426.00" y2="890.00" stroke="#d8dee3" stroke-width="1"/>
<text x="426.00" y="918.00" font-family="Aptos, Segoe UI, Arial, sans-serif" font-size="13" font-weight="500" fill="#60707a" text-anchor="middle" opacity="1">0.0004</text>
<line x1="662.00" y1="170.00" x2="662.00" y2="890.00" stroke="#d8dee3" stroke-width="1"/>
<text x="662.00" y="918.00" font-family="Aptos, Segoe UI, Arial, sans-serif" font-size="13" font-weight="500" fill="#60707a" text-anchor="middle" opacity="1">0.0009</text>
<line x1="898.00" y1="170.00" x2="898.00" y2="890.00" stroke="#d8dee3" stroke-width="1"/>
<text x="898.00" y="918.00" font-family="Aptos, Segoe UI, Arial, sans-serif" font-size="13" font-weight="500" fill="#60707a" text-anchor="middle" opacity="1">0.0013</text>
<line x1="1134.00" y1="170.00" x2="1134.00" y2="890.00" stroke="#d8dee3" stroke-width="1"/>
<text x="1134.00" y="918.00" font-family="Aptos, Segoe UI, Arial, sans-serif" font-size="13" font-weight="500" fill="#60707a" text-anchor="middle" opacity="1">0.0018</text>
<line x1="1370.00" y1="170.00" x2="1370.00" y2="890.00" stroke="#d8dee3" stroke-width="1"/>
<text x="1370.00" y="918.00" font-family="Aptos, Segoe UI, Arial, sans-serif" font-size="13" font-weight="500" fill="#60707a" text-anchor="middle" opacity="1">0.0022</text>
<line x1="182.00" y1="890.00" x2="1370.00" y2="890.00" stroke="#d8dee3" stroke-width="1"/>
<text x="170.00" y="895.00" font-family="Aptos, Segoe UI, Arial, sans-serif" font-size="13" font-weight="500" fill="#60707a" text-anchor="end" opacity="1">Story1</text>
<line x1="182.00" y1="710.00" x2="1370.00" y2="710.00" stroke="#d8dee3" stroke-width="1"/>
<text x="170.00" y="715.00" font-family="Aptos, Segoe UI, Arial, sans-serif" font-size="13" font-weight="500" fill="#60707a" text-anchor="end" opacity="1">Story2</text>
<line x1="182.00" y1="530.00" x2="1370.00" y2="530.00" stroke="#d8dee3" stroke-width="1"/>
<text x="170.00" y="535.00" font-family="Aptos, Segoe UI, Arial, sans-serif" font-size="13" font-weight="500" fill="#60707a" text-anchor="end" opacity="1">Story3</text>
<line x1="182.00" y1="350.00" x2="1370.00" y2="350.00" stroke="#d8dee3" stroke-width="1"/>
<text x="170.00" y="355.00" font-family="Aptos, Segoe UI, Arial, sans-serif" font-size="13" font-weight="500" fill="#60707a" text-anchor="end" opacity="1">Story4</text>
<line x1="182.00" y1="170.00" x2="1370.00" y2="170.00" stroke="#d8dee3" stroke-width="1"/>
<text x="170.00" y="175.00" font-family="Aptos, Segoe UI, Arial, sans-serif" font-size="13" font-weight="500" fill="#60707a" text-anchor="end" opacity="1">Story5</text>
<line x1="1262.73" y1="170.00" x2="1262.73" y2="890.00" stroke="#b91c1c" stroke-width="3" stroke-dasharray="8 8"/>
<text x="1270.73" y="190.00" font-family="Aptos, Segoe UI, Arial, sans-serif" font-size="16" font-weight="800" fill="#b91c1c" text-anchor="start" opacity="1">l&#237;mite CM 0.002</text>
<polyline points="633.57,890.00 625.53,710.00 628.75,530.00 555.26,350.00 435.12,170.00" fill="none" stroke="#2563eb" stroke-width="4" stroke-linejoin="round" stroke-linecap="round" opacity="1"/>
<circle cx="633.57" cy="890.00" r="4.20" fill="#2563eb" stroke="white" stroke-width="2" opacity="1"/>
<circle cx="625.53" cy="710.00" r="4.20" fill="#2563eb" stroke="white" stroke-width="2" opacity="1"/>
<circle cx="628.75" cy="530.00" r="4.20" fill="#2563eb" stroke="white" stroke-width="2" opacity="1"/>
<circle cx="555.26" cy="350.00" r="4.20" fill="#2563eb" stroke="white" stroke-width="2" opacity="1"/>
<circle cx="435.12" cy="170.00" r="4.20" fill="#2563eb" stroke="white" stroke-width="2" opacity="1"/>
<polyline points="609.44,890.00 600.32,710.00 601.39,530.00 531.13,350.00 418.49,170.00" fill="none" stroke="#0f766e" stroke-width="4" stroke-linejoin="round" stroke-linecap="round" opacity="1"/>
<circle cx="609.44" cy="890.00" r="4.20" fill="#0f766e" stroke="white" stroke-width="2" opacity="1"/>
<circle cx="600.32" cy="710.00" r="4.20" fill="#0f766e" stroke="white" stroke-width="2" opacity="1"/>
<circle cx="601.39" cy="530.00" r="4.20" fill="#0f766e" stroke="white" stroke-width="2" opacity="1"/>
<circle cx="531.13" cy="350.00" r="4.20" fill="#0f766e" stroke="white" stroke-width="2" opacity="1"/>
<circle cx="418.49" cy="170.00" r="4.20" fill="#0f766e" stroke="white" stroke-width="2" opacity="1"/>
<polyline points="310.68,890.00 316.05,710.00 326.24,530.00 309.07,350.00 272.60,170.00" fill="none" stroke="#d97706" stroke-width="4" stroke-linejoin="round" stroke-linecap="round" opacity="1"/>
<circle cx="310.68" cy="890.00" r="4.20" fill="#d97706" stroke="white" stroke-width="2" opacity="1"/>
<circle cx="316.05" cy="710.00" r="4.20" fill="#d97706" stroke="white" stroke-width="2" opacity="1"/>
<circle cx="326.24" cy="530.00" r="4.20" fill="#d97706" stroke="white" stroke-width="2" opacity="1"/>
<circle cx="309.07" cy="350.00" r="4.20" fill="#d97706" stroke="white" stroke-width="2" opacity="1"/>
<circle cx="272.60" cy="170.00" r="4.20" fill="#d97706" stroke="white" stroke-width="2" opacity="1"/>
<rect x="190.00" y="134.00" width="22.00" height="8.00" rx="3" fill="#2563eb" stroke="#2563eb" stroke-width="1" opacity="1"/>
<text x="220.00" y="143.00" font-family="Aptos, Segoe UI, Arial, sans-serif" font-size="15" font-weight="500" fill="#60707a" text-anchor="start" opacity="1">CM X</text>
<rect x="282.80" y="134.00" width="22.00" height="8.00" rx="3" fill="#0f766e" stroke="#0f766e" stroke-width="1" opacity="1"/>
<text x="312.80" y="143.00" font-family="Aptos, Segoe UI, Arial, sans-serif" font-size="15" font-weight="500" fill="#60707a" text-anchor="start" opacity="1">CM Y</text>
<rect x="375.60" y="134.00" width="22.00" height="8.00" rx="3" fill="#d97706" stroke="#d97706" stroke-width="1" opacity="1"/>
<text x="405.60" y="143.00" font-family="Aptos, Segoe UI, Arial, sans-serif" font-size="15" font-weight="500" fill="#60707a" text-anchor="start" opacity="1">Exceso</text>
</svg>
